<svg width="32" height="32" xmlns="http://www.w3.org/2000/svg">
  <!-- Portal tile with magical swirling pattern -->
  <rect width="32" height="32" fill="#1E1B4B"/>
  
  <!-- Outer ring -->
  <circle cx="16" cy="16" r="14" fill="none" stroke="#7C3AED" stroke-width="2"/>
  <circle cx="16" cy="16" r="12" fill="none" stroke="#A855F7" stroke-width="1"/>
  
  <!-- Inner portal -->
  <circle cx="16" cy="16" r="10" fill="#581C87"/>
  <circle cx="16" cy="16" r="8" fill="#7C2D92"/>
  <circle cx="16" cy="16" r="6" fill="#A855F7"/>
  <circle cx="16" cy="16" r="4" fill="#C084FC"/>
  
  <!-- Magical particles -->
  <rect x="6" y="6" width="2" height="2" fill="#FBBF24"/>
  <rect x="24" y="8" width="2" height="2" fill="#FBBF24"/>
  <rect x="8" y="24" width="2" height="2" fill="#FBBF24"/>
  <rect x="22" y="22" width="2" height="2" fill="#FBBF24"/>
  
  <rect x="4" y="16" width="2" height="2" fill="#60A5FA"/>
  <rect x="26" y="14" width="2" height="2" fill="#60A5FA"/>
  <rect x="16" y="4" width="2" height="2" fill="#60A5FA"/>
  <rect x="14" y="26" width="2" height="2" fill="#60A5FA"/>
  
  <!-- Inner swirl pattern -->
  <rect x="12" y="12" width="2" height="2" fill="#DDD6FE"/>
  <rect x="18" y="14" width="2" height="2" fill="#DDD6FE"/>
  <rect x="14" y="18" width="2" height="2" fill="#DDD6FE"/>
  <rect x="16" y="10" width="2" height="2" fill="#DDD6FE"/>
  
  <!-- Center core -->
  <circle cx="16" cy="16" r="2" fill="#F3E8FF"/>
  
  <!-- Animated sparkles -->
  <rect x="10" y="10" width="1" height="1" fill="#FFFFFF"/>
  <rect x="20" y="12" width="1" height="1" fill="#FFFFFF"/>
  <rect x="12" y="20" width="1" height="1" fill="#FFFFFF"/>
  <rect x="18" y="18" width="1" height="1" fill="#FFFFFF"/>
</svg>