<svg width="32" height="32" xmlns="http://www.w3.org/2000/svg">
  <!-- Rock tile with rough stone texture -->
  <rect width="32" height="32" fill="#6B7280"/>
  
  <!-- Base stone blocks -->
  <rect x="0" y="0" width="16" height="16" fill="#9CA3AF"/>
  <rect x="16" y="0" width="16" height="16" fill="#6B7280"/>
  <rect x="0" y="16" width="16" height="16" fill="#4B5563"/>
  <rect x="16" y="16" width="16" height="16" fill="#9CA3AF"/>
  
  <!-- Stone cracks and details -->
  <rect x="0" y="8" width="32" height="1" fill="#374151"/>
  <rect x="0" y="24" width="32" height="1" fill="#374151"/>
  <rect x="8" y="0" width="1" height="32" fill="#374151"/>
  <rect x="24" y="0" width="1" height="32" fill="#374151"/>
  
  <!-- Rough texture -->
  <rect x="2" y="2" width="4" height="4" fill="#D1D5DB"/>
  <rect x="10" y="6" width="4" height="4" fill="#D1D5DB"/>
  <rect x="18" y="2" width="4" height="4" fill="#4B5563"/>
  <rect x="26" y="6" width="4" height="4" fill="#4B5563"/>
  
  <rect x="2" y="18" width="4" height="4" fill="#4B5563"/>
  <rect x="10" y="22" width="4" height="4" fill="#D1D5DB"/>
  <rect x="18" y="18" width="4" height="4" fill="#D1D5DB"/>
  <rect x="26" y="22" width="4" height="4" fill="#6B7280"/>
  
  <!-- Stone edges -->
  <rect x="0" y="0" width="32" height="2" fill="#D1D5DB"/>
  <rect x="0" y="0" width="2" height="32" fill="#D1D5DB"/>
  <rect x="0" y="30" width="32" height="2" fill="#374151"/>
  <rect x="30" y="0" width="2" height="32" fill="#374151"/>
</svg>