<svg width="32" height="32" xmlns="http://www.w3.org/2000/svg">
  <!-- Water tile with animated wave pattern -->
  <rect width="32" height="32" fill="#1E40AF"/>
  <rect x="0" y="6" width="32" height="4" fill="#2563EB"/>
  <rect x="0" y="12" width="32" height="4" fill="#3B82F6"/>
  <rect x="0" y="18" width="32" height="4" fill="#60A5FA"/>
  <rect x="0" y="24" width="32" height="4" fill="#2563EB"/>
  
  <!-- Wave pattern -->
  <rect x="2" y="4" width="4" height="2" fill="#60A5FA"/>
  <rect x="8" y="4" width="4" height="2" fill="#60A5FA"/>
  <rect x="14" y="4" width="4" height="2" fill="#60A5FA"/>
  <rect x="20" y="4" width="4" height="2" fill="#60A5FA"/>
  <rect x="26" y="4" width="4" height="2" fill="#60A5FA"/>
  
  <rect x="4" y="10" width="4" height="2" fill="#93C5FD"/>
  <rect x="10" y="10" width="4" height="2" fill="#93C5FD"/>
  <rect x="16" y="10" width="4" height="2" fill="#93C5FD"/>
  <rect x="22" y="10" width="4" height="2" fill="#93C5FD"/>
  <rect x="28" y="10" width="4" height="2" fill="#93C5FD"/>
  
  <rect x="0" y="16" width="4" height="2" fill="#93C5FD"/>
  <rect x="6" y="16" width="4" height="2" fill="#93C5FD"/>
  <rect x="12" y="16" width="4" height="2" fill="#93C5FD"/>
  <rect x="18" y="16" width="4" height="2" fill="#93C5FD"/>
  <rect x="24" y="16" width="4" height="2" fill="#93C5FD"/>
  <rect x="30" y="16" width="2" height="2" fill="#93C5FD"/>
  
  <rect x="2" y="22" width="4" height="2" fill="#BFDBFE"/>
  <rect x="8" y="22" width="4" height="2" fill="#BFDBFE"/>
  <rect x="14" y="22" width="4" height="2" fill="#BFDBFE"/>
  <rect x="20" y="22" width="4" height="2" fill="#BFDBFE"/>
  <rect x="26" y="22" width="4" height="2" fill="#BFDBFE"/>
  
  <rect x="4" y="28" width="4" height="2" fill="#BFDBFE"/>
  <rect x="10" y="28" width="4" height="2" fill="#BFDBFE"/>
  <rect x="16" y="28" width="4" height="2" fill="#BFDBFE"/>
  <rect x="22" y="28" width="4" height="2" fill="#BFDBFE"/>
  <rect x="28" y="28" width="4" height="2" fill="#BFDBFE"/>
</svg>